<svg xmlns="http://www.w3.org/2000/svg" width="65.711" height="65.711" viewBox="0 0 65.711 65.711">
  <g id="Groupe_9776" data-name="Groupe 9776" transform="translate(-1081 -410)">
    <g id="Groupe_9775" data-name="Groupe 9775" transform="translate(153.855 0.406)">
      <g id="Style_Two_tone-48" data-name="Style=Two tone-48" transform="translate(927.145 409.594)">
        <path id="Tracé_9112" data-name="Tracé 9112" d="M63.4,33.7A29.7,29.7,0,1,1,33.7,4,29.7,29.7,0,0,1,63.4,33.7Z" transform="translate(-0.844 -0.844)" fill="rgba(207,174,120,0.12)"/>
        <path id="Tracé_9113" data-name="Tracé 9113" d="M36.006,9.461A26.544,26.544,0,1,0,62.55,36.006,26.544,26.544,0,0,0,36.006,9.461ZM3.15,36.006A32.856,32.856,0,1,1,36.006,68.861,32.856,32.856,0,0,1,3.15,36.006Z" transform="translate(-3.15 -3.15)" fill="#cfae78" fill-rule="evenodd"/>
      </g>
    </g>
    <path id="Tracé_9678" data-name="Tracé 9678" d="M176.244,539.565a9.228,9.228,0,0,1,18.456-.091,9.148,9.148,0,0,1-2,5.709l-4.733,5.915a2.19,2.19,0,1,1-3.422-2.734l4.736-5.918a4.759,4.759,0,0,0-3.76-7.73,4.889,4.889,0,0,0-4.9,4.849v.782a2.19,2.19,0,0,1-4.379,0Zm10.01,15.866a2.451,2.451,0,1,0,2.449,2.452A2.449,2.449,0,0,0,186.254,555.432Z" transform="translate(928.178 -102.651)" fill="#cfae78" fill-rule="evenodd"/>
  </g>
</svg>
