<svg xmlns="http://www.w3.org/2000/svg" width="65.711" height="65.711" viewBox="0 0 65.711 65.711">
  <g id="Groupe_9774" data-name="Groupe 9774" transform="translate(-927.145 -409.594)">
    <g id="Style_Two_tone-48" data-name="Style=Two tone-48" transform="translate(927.145 409.594)">
      <path id="Tracé_9112" data-name="Tracé 9112" d="M63.4,33.7A29.7,29.7,0,1,1,33.7,4,29.7,29.7,0,0,1,63.4,33.7Z" transform="translate(-0.844 -0.844)" fill="rgba(220,0,0,0.12)"/>
      <path id="Tracé_9113" data-name="Tracé 9113" d="M36.006,9.461A26.544,26.544,0,1,0,62.55,36.006,26.544,26.544,0,0,0,36.006,9.461ZM3.15,36.006A32.856,32.856,0,1,1,36.006,68.861,32.856,32.856,0,0,1,3.15,36.006Z" transform="translate(-3.15 -3.15)" fill="#dc0000" fill-rule="evenodd"/>
    </g>
    <g id="Groupe_9773" data-name="Groupe 9773" transform="translate(77.214 -9.945)">
      <path id="Tracé_3670" data-name="Tracé 3670" d="M7.544,31.191a2.434,2.434,0,0,1,0-3.457L28.211,7.091A2.434,2.434,0,0,1,31.6,10.523L11,31.191a2.434,2.434,0,0,1-3.457,0Z" transform="translate(864.161 433.86)" fill="#dc0000"/>
      <path id="Tracé_3671" data-name="Tracé 3671" d="M7.127,7.127a2.434,2.434,0,0,1,3.432,0L31.227,27.77a2.444,2.444,0,1,1-3.457,3.457L7.127,10.56A2.434,2.434,0,0,1,7.127,7.127Z" transform="translate(863.58 433.581)" fill="#dc0000"/>
    </g>
  </g>
</svg>
