<svg id="Style_Two_tone-48" data-name="Style=Two tone-48" xmlns="http://www.w3.org/2000/svg" width="65.711" height="65.711" viewBox="0 0 65.711 65.711">
  <path id="Path_9112" data-name="Path 9112" d="M63.4,33.7A29.7,29.7,0,1,1,33.7,4,29.7,29.7,0,0,1,63.4,33.7Z" transform="translate(-0.844 -0.844)" fill="rgba(255,100,35,0.12)"/>
  <path id="Path_9113" data-name="Path 9113" d="M36.006,9.461A26.544,26.544,0,1,0,62.55,36.006,26.544,26.544,0,0,0,36.006,9.461ZM3.15,36.006A32.856,32.856,0,1,1,36.006,68.861,32.856,32.856,0,0,1,3.15,36.006Z" transform="translate(-3.15 -3.15)" fill="#ff6423" fill-rule="evenodd"/>
  <path id="Path_9114" data-name="Path 9114" d="M14.306,11.15a3.156,3.156,0,0,1,3.156,3.156V25.443a3.156,3.156,0,1,1-6.311,0V14.306A3.156,3.156,0,0,1,14.306,11.15Z" transform="translate(18.55 18.55)" fill="#ff6423" fill-rule="evenodd"/>
  <path id="Path_9115" data-name="Path 9115" d="M18.425,11.712A3.712,3.712,0,1,1,14.712,8,3.712,3.712,0,0,1,18.425,11.712Z" transform="translate(18.143 10.006)" fill="#ff6423"/>
</svg>
