<svg id="Style_Two_tone-12" data-name="Style=Two tone-12" xmlns="http://www.w3.org/2000/svg" width="65.711" height="65.711" viewBox="0 0 65.711 65.711">
  <path id="Path_8969" data-name="Path 8969" d="M63.4,33.7A29.7,29.7,0,1,1,33.7,4,29.7,29.7,0,0,1,63.4,33.7Z" transform="translate(-0.844 -0.844)" fill="rgba(87,170,171,0.12)"/>
  <path id="Path_8970" data-name="Path 8970" d="M36.005,9.461A26.544,26.544,0,1,0,62.55,36.006,26.544,26.544,0,0,0,36.005,9.461ZM3.15,36.006A32.856,32.856,0,1,1,36.005,68.861,32.856,32.856,0,0,1,3.15,36.006Z" transform="translate(-3.15 -3.15)" fill="#57aaab" fill-rule="evenodd"/>
  <path id="Path_8971" data-name="Path 8971" d="M32.286,10.844a3.2,3.2,0,0,1,0,4.485l-9.271,9.365a6.784,6.784,0,0,1-9.639.025l-3.368-3.368a3.194,3.194,0,0,1-.022-4.485,3.117,3.117,0,0,1,4.44-.023l3.368,3.368a.55.55,0,0,0,.781,0l9.271-9.365A3.117,3.117,0,0,1,32.286,10.844Z" transform="translate(12.926 15.201)" fill="#57aaab" fill-rule="evenodd"/>
</svg>
