<svg xmlns="http://www.w3.org/2000/svg" width="16.716" height="19.2" viewBox="0 0 16.716 19.2">
  <g id="Style_Two_tone-1" data-name="Style=Two tone-1" transform="translate(-4.295 -3.15)">
    <path id="Path_8941" data-name="Path 8941" d="M7.32,20.424H17.841a2.223,2.223,0,0,0,2.052-1.466,2.049,2.049,0,0,0-.776-2.458l-.921-.67A4.338,4.338,0,0,0,15.644,15H9.517a4.338,4.338,0,0,0-2.552.83l-.921.67A2.17,2.17,0,0,0,7.32,20.424Z" transform="translate(0.072 1.004)" fill="rgba(255,255,255,0.26)"/>
    <path id="Path_8942" data-name="Path 8942" d="M9.589,15.994a3.417,3.417,0,0,0-2.01.654l-.921.67a1.247,1.247,0,0,0,.734,2.256H17.914a1.247,1.247,0,0,0,.734-2.256l-.921-.67a3.417,3.417,0,0,0-2.01-.654ZM6.5,15.156A5.261,5.261,0,0,1,9.589,14.15h6.127a5.261,5.261,0,0,1,3.094,1.006l-.542.746.542-.746.921.67a3.092,3.092,0,0,1-1.818,5.592H7.392a3.092,3.092,0,0,1-1.818-5.592Z" transform="translate(0 0.932)" fill="#fff" fill-rule="evenodd"/>
    <path id="Path_8943" data-name="Path 8943" d="M16.678,8.339A4.339,4.339,0,1,1,12.339,4,4.339,4.339,0,0,1,16.678,8.339Z" transform="translate(0.314 0.072)" fill="rgba(255,255,255,0.26)"/>
    <path id="Path_8944" data-name="Path 8944" d="M12.411,4.994a3.417,3.417,0,1,0,3.417,3.417A3.417,3.417,0,0,0,12.411,4.994ZM7.15,8.411a5.261,5.261,0,1,1,5.261,5.261A5.261,5.261,0,0,1,7.15,8.411Z" transform="translate(0.242 0)" fill="#fff" fill-rule="evenodd"/>
  </g>
</svg>
